<svg width="3417" height="1250" viewBox="0 0 3417 1250" fill="none" xmlns="http://www.w3.org/2000/svg">
<path fill-rule="evenodd" clip-rule="evenodd" d="M173.713 207.121C180.494 218.158 175.85 255.868 175.603 271.116L150.164 286.495L150.197 359.027L150.783 397.925L175.249 411.97C177.733 457.534 175.616 508.955 175.616 555.158V837.974C175.616 905.463 170.076 903.274 220.28 932.38C279.672 966.811 339.871 1002.17 399.674 1035.82C450.746 1064.55 530.324 1114.47 577.385 1138.24C591.733 1132.91 609.671 1120.53 623.422 1112.81C638.705 1104.23 653.319 1095.66 667.9 1087.18L845.621 984.45C876.032 966.425 906.116 950.335 936.135 932.346C985.429 902.817 980.914 908.304 980.914 837.974C980.914 790.437 980.914 742.895 980.914 695.36C980.914 602.813 977.467 503.516 981.234 411.809L1006.38 398.741L1006.54 286.132L981.367 272.703L980.724 218.953C981.557 190.716 1006.68 191.94 999.753 145.426C996.358 122.621 984.138 110.752 970.968 99.6708C937.18 71.2573 948.79 74.0604 936.365 59.5334C926.342 84.9832 919.614 85.7586 903.335 99.4714C868.827 128.534 863.836 169.201 888.21 201.719C897.132 213.62 893.322 255.936 893.188 273.151L868.16 286.29L867.926 395.618C873.325 404.404 885.098 408.647 892.973 412.041L893.251 852.482C891.552 860.067 827.001 894.098 816.85 900.091L617.519 1015.01C605.251 1022.23 587.885 1035.55 573.418 1036.04L263.423 854.899L263.718 412.208C270.813 409.057 284.331 402.88 288.781 395.618L288.084 286.438L263.451 272.955L262.893 223.159C264.524 199.035 264.153 210.658 273.637 194.973C279.897 184.614 279.134 177.292 283.063 167.813C279.944 88.2907 238.862 111.171 220.352 59.1427C212.184 68.3017 213.071 78.4658 195.103 92.2813C185.215 99.8905 172.302 109.835 165.326 120.534C146.64 149.201 156.534 184.847 173.713 207.121Z" fill="#274371"/>
<path fill-rule="evenodd" clip-rule="evenodd" d="M583.119 906.498C588.245 900.104 668.699 856.262 682.674 848.057C699.973 837.903 716.19 828.83 733.174 818.79C748.556 809.698 768.216 797.174 783.951 790.128L784.175 701.986L577.702 585.054C563.106 591.79 543.032 604.582 528.017 613.655L372.569 702.034L372.526 789.98C406.928 806.962 441.222 829.216 475.749 848.634C493.977 858.889 568.261 905.94 583.119 906.498Z" fill="#F18B04"/>
<path fill-rule="evenodd" clip-rule="evenodd" d="M583.199 906.497C568.342 905.939 494.058 858.888 475.829 848.634C441.303 829.217 407.009 806.961 372.608 789.981L372.65 702.035L528.099 613.654C543.114 604.582 563.188 591.79 577.783 585.054L784.256 701.987L784.032 790.128C768.298 797.173 748.637 809.697 733.255 818.789C716.271 828.83 700.054 837.903 682.756 848.056C668.78 856.262 588.325 900.104 583.199 906.497ZM575.971 519.467L575.585 519.482L341.766 653.892L342.077 533.79L574.983 400.591L575.971 397.692C597.981 403.375 777.181 515.7 815.374 532.826L815.245 654.788C782.048 640.948 598.506 525.733 575.971 519.467ZM578.923 332.396C565.238 336.967 353.73 461.181 324.438 477.734C273.31 506.634 284.409 510.73 284.409 596.253C284.409 635.994 281.984 815.363 287.038 829.36C294.161 849.077 311.345 855.4 329.985 866.355L575.218 1007.79C575.648 1007.91 576.453 1008.03 576.845 1008.11C577.231 1008.18 578.169 1008.14 578.484 1008.18L581.831 1007.81C614.002 987.516 650.012 968.603 682.708 949.544L832.863 862.798C850.328 853.125 866.597 845.559 871.171 823.81C874.685 807.061 873.717 526.219 869.349 513.142C862.207 491.754 846.072 486.496 827.251 475.535C810.437 465.743 795.404 457.375 778.267 447.192L578.923 332.396Z" fill="#274371"/>
<path fill-rule="evenodd" clip-rule="evenodd" d="M574.764 400.591L341.857 533.79L341.547 653.892L575.365 519.482L575.752 519.467C598.286 525.732 781.828 640.948 815.026 654.788L815.154 532.826C776.961 515.7 597.761 403.375 575.752 397.691L574.764 400.591Z" fill="#F18B04"/>
<path fill-rule="evenodd" clip-rule="evenodd" d="M284.057 167.81C280.128 177.288 280.891 184.611 274.63 194.971C265.146 210.661 265.519 199.033 263.887 223.157C292.106 205.026 317.726 182.518 353.964 163.124C371.363 153.804 441.546 119.997 462.398 120.241L446.009 164.926C463.981 163.467 462.879 159.12 471.076 147.268C475.267 141.203 485.485 124.76 489.543 122.481C496.071 118.815 559.107 114.63 567.737 116.956C569.864 142.195 559.955 172.869 556.322 198.914C582.103 195.448 581.779 184.096 591.473 161.27C596.141 150.29 608.357 119.459 614.551 111.883C643.112 109.7 690.599 108.26 697.303 83.7933C691.023 55.327 633.18 69.5102 607.203 72.1227L561.242 9.90209C553.69 0.801283 550.948 -1.09142 534.393 0.515084C537.073 22.6358 562.783 51.6507 562.225 78.9588L483.936 91.8408C478.247 81.9005 470.556 78.8014 463.285 71.6031C453.486 61.9059 452.122 56.8144 434.518 58.1779C438.247 73.5048 459.699 86.7252 458.12 103.097C446.61 107.765 399.128 118.996 366.185 131.778C331.382 145.294 322.957 151.353 294.056 166.395C282.893 172.197 287.719 170.142 284.057 167.81ZM1132.71 838.987C1146.61 818.206 1156.44 727.323 1156.7 707.948C1151.99 725.183 1148.93 752.109 1144.31 771.995C1115.38 896.536 1027.2 1024.74 922.825 1092.05C858.026 1133.85 792.201 1165.7 701.886 1180.21C451.163 1220.49 205.949 1080.58 113.522 856.436C80.0157 775.179 63.823 691.463 71.7244 594.068C75.3053 549.91 85.5903 506.017 98.8459 466.384C107.572 440.296 134.24 375.55 149.145 361.457C149.861 372.684 147.272 390.271 151.778 397.928L151.191 359.03L151.158 286.498L176.596 271.117C176.844 255.866 181.489 218.16 174.708 207.124C180.878 263.99 173.911 255.223 135.642 297.763C41.6366 402.252 -10.9087 569.677 1.90808 719.538C44.722 1220.23 664.355 1435.48 1009.5 1057.86C1041.69 1022.64 1056.68 1001.08 1081.82 958.571C1094.98 936.311 1129.39 867.068 1132.71 838.987Z" fill="#F18B04"/>
<path d="M1696.69 755.008H1671.76V818.325H1655.13V755.008H1630.2V742.423H1696.69V755.008ZM1778.58 819.941C1767.03 819.941 1757.97 816.417 1751.37 809.385C1744.76 802.354 1741.46 792.709 1741.46 780.452C1741.46 768.125 1744.74 758.446 1751.31 751.415C1757.88 744.383 1766.98 740.859 1778.58 740.859C1790.17 740.859 1799.27 744.383 1805.87 751.432C1812.47 758.481 1815.78 768.159 1815.78 780.452C1815.78 792.64 1812.49 802.268 1805.92 809.334C1799.35 816.4 1790.24 819.941 1778.58 819.941ZM1778.64 752.842C1772.63 752.842 1767.84 755.249 1764.28 760.045C1760.72 764.859 1758.95 771.65 1758.95 780.452C1758.95 789.219 1760.72 795.993 1764.28 800.772C1767.84 805.552 1772.63 807.941 1778.64 807.941C1784.62 807.941 1789.38 805.534 1792.94 800.721C1796.5 795.907 1798.29 789.133 1798.29 780.4C1798.29 771.632 1796.52 764.859 1792.98 760.045C1789.43 755.249 1784.65 752.842 1778.64 752.842ZM1935.91 789.924C1935.91 799.896 1933.1 807.374 1927.51 812.377C1921.93 817.38 1913.93 819.89 1903.56 819.89C1893.14 819.89 1885.17 817.362 1879.61 812.308C1874.04 807.253 1871.27 799.792 1871.27 789.924V742.423H1887.95V789.46C1887.95 795.769 1889.24 800.343 1891.82 803.162C1894.4 805.981 1898.32 807.391 1903.56 807.391C1908.93 807.391 1912.88 805.999 1915.43 803.196C1917.95 800.394 1919.23 795.839 1919.23 789.563V742.423H1935.91V789.924ZM2066.25 818.325H2045.69L2023.42 789.563H2012.84V818.325H1996.22V742.423H2025.29C2035.83 742.423 2043.43 744.297 2048.09 748.045C2052.74 751.776 2055.06 756.864 2055.06 763.277C2055.06 773.317 2050 780.744 2039.91 785.592L2066.25 818.325ZM2012.74 754.354V777.976H2020.2C2027.36 777.976 2032.09 776.79 2034.41 774.4C2036.73 772.028 2037.88 768.899 2037.88 765.031C2037.88 761.609 2036.78 758.979 2034.56 757.122C2032.34 755.283 2027.98 754.354 2021.46 754.354H2012.74ZM2229.13 818.325H2209.39L2200.82 810.313C2193.91 816.692 2185.81 819.89 2176.55 819.89C2167.85 819.89 2160.93 817.775 2155.79 813.563C2150.65 809.351 2148.09 803.746 2148.09 796.767C2148.09 787.879 2152.82 780.881 2162.29 775.81C2158.32 772.922 2155.6 770.188 2154.11 767.609C2152.61 765.013 2151.85 762.091 2151.85 758.842C2151.85 753.598 2154.11 749.3 2158.58 745.93C2163.06 742.544 2169.29 740.859 2177.25 740.859C2184.61 740.859 2190.4 742.337 2194.65 745.294C2198.9 748.251 2201.03 752.171 2201.03 757.071C2201.03 766.217 2195.44 772.629 2184.3 776.325L2200.93 791.523C2201.25 790.561 2201.43 784.509 2201.43 773.403H2217.61V778.836C2217.61 787.036 2215.27 794.119 2210.59 800.085L2229.13 816.967V818.325ZM2184.8 758.893C2184.8 753.151 2182.01 750.28 2176.44 750.28C2174.16 750.28 2172.23 751.019 2170.65 752.498C2169.07 753.976 2168.28 755.988 2168.28 758.532C2168.28 762.366 2171.4 766.458 2177.65 770.825C2182.43 768.142 2184.8 764.171 2184.8 758.893ZM2193.26 803.059L2170.05 781.758C2166.73 784.509 2165.06 788.584 2165.06 793.947C2165.06 798.245 2166.47 801.718 2169.29 804.348C2172.11 806.978 2175.7 808.302 2180.07 808.302C2185.44 808.302 2189.84 806.549 2193.26 803.059ZM2372.33 755.008H2347.4V818.325H2330.77V755.008H2305.84V742.423H2372.33V755.008ZM2495.49 818.325H2474.92L2452.66 789.563H2442.08V818.325H2425.46V742.423H2454.53C2465.07 742.423 2472.67 744.297 2477.33 748.045C2481.97 751.776 2484.29 756.864 2484.29 763.277C2484.29 773.317 2479.24 780.744 2469.15 785.592L2495.49 818.325ZM2441.98 754.354V777.976H2449.44C2456.59 777.976 2461.32 776.79 2463.64 774.4C2465.97 772.028 2467.12 768.899 2467.12 765.031C2467.12 761.609 2466.02 758.979 2463.8 757.122C2461.58 755.283 2457.21 754.354 2450.7 754.354H2441.98ZM2613.09 818.325H2595.5L2589.76 801.856H2559.89L2554.15 818.325H2537.33L2566 742.423H2584.43L2613.09 818.325ZM2585.58 790.062L2574.85 759.443L2564.12 790.062H2585.58ZM2727.08 742.423L2698.27 818.325H2681.28L2652.53 742.423H2670L2690.1 797.867L2710.15 742.423H2727.08ZM2832.55 818.325H2779.64V742.423H2832.55V755.008H2796.16V771.237H2829.97V783.77H2796.16V805.741H2832.55V818.325ZM2943 818.325H2890.3V742.423H2906.92V805.741H2943V818.325Z" fill="#F18B04"/>
<path d="M1157 433.115H1208.73C1226.39 433.115 1239.27 437.218 1247.37 445.423C1255.47 453.628 1259.52 466.246 1259.52 483.279V492.003C1259.52 503.22 1257.7 512.359 1254.07 519.421C1250.43 526.484 1244.88 531.573 1237.4 534.689V535.312C1254.43 541.128 1262.95 556.291 1262.95 580.802V599.496C1262.95 616.321 1258.54 629.147 1249.71 637.975C1240.88 646.803 1227.95 651.217 1210.91 651.217H1157V433.115ZM1204.68 521.914C1211.53 521.914 1216.68 520.149 1220.1 516.617C1223.53 513.086 1225.24 507.166 1225.24 498.857V486.706C1225.24 478.813 1223.84 473.1 1221.04 469.569C1218.23 466.039 1213.82 464.273 1207.79 464.273H1191.28V521.914H1204.68ZM1210.91 620.06C1216.93 620.06 1221.4 618.45 1224.31 615.23C1227.22 612.011 1228.67 606.454 1228.67 598.561V579.555C1228.67 569.585 1226.96 562.678 1223.53 558.835C1220.1 554.993 1214.44 553.071 1206.55 553.071H1191.28V620.06H1210.91ZM1282.89 433.115H1376.38V464.273H1317.17V521.914H1364.23V553.071H1317.17V620.06H1376.38V651.217H1282.89V433.115ZM1396.01 433.115H1446.81C1464.47 433.115 1477.35 437.218 1485.45 445.423C1493.55 453.628 1497.6 466.246 1497.6 483.279V496.676C1497.6 519.317 1490.12 533.65 1475.16 539.673V540.297C1483.47 542.789 1489.34 547.879 1492.77 555.564C1496.2 563.249 1497.91 573.531 1497.91 586.41V624.734C1497.91 630.965 1498.12 636.002 1498.54 639.844C1498.95 643.688 1499.99 647.478 1501.65 651.217H1466.75C1465.5 647.686 1464.67 644.362 1464.26 641.247C1463.84 638.131 1463.63 632.523 1463.63 624.422V584.54C1463.63 574.57 1462.02 567.611 1458.8 563.665C1455.58 559.718 1450.03 557.745 1442.13 557.745H1430.29V651.217H1396.01V433.115ZM1442.76 526.588C1449.61 526.588 1454.75 524.822 1458.18 521.291C1461.61 517.76 1463.32 511.84 1463.32 503.531V486.706C1463.32 478.813 1461.92 473.1 1459.12 469.569C1456.31 466.039 1451.9 464.273 1445.87 464.273H1430.29V526.588H1442.76ZM1521.6 433.115H1555.87V525.029L1599.5 433.115H1633.78L1592.96 513.19L1634.4 651.217H1598.57L1569.58 554.006L1555.87 581.736V651.217H1521.6V433.115ZM1677.09 433.115H1723.53L1759.05 651.217H1724.77L1718.54 607.909V608.531H1679.59L1673.35 651.217H1641.57L1677.09 433.115ZM1714.49 578.932L1699.22 471.127H1698.6L1683.64 578.932H1714.49ZM1775.57 433.115H1809.84V521.914H1846.61V433.115H1880.89V651.217H1846.61V553.071H1809.84V651.217H1775.57V433.115ZM1956.31 433.115H2008.04C2025.69 433.115 2038.57 437.218 2046.68 445.423C2054.78 453.628 2058.83 466.246 2058.83 483.279V492.003C2058.83 503.22 2057.01 512.359 2053.38 519.421C2049.74 526.484 2044.18 531.573 2036.7 534.689V535.312C2053.74 541.128 2062.26 556.291 2062.26 580.802V599.496C2062.26 616.321 2057.84 629.147 2049.01 637.975C2040.18 646.803 2027.25 651.217 2010.22 651.217H1956.31V433.115ZM2003.98 521.914C2010.84 521.914 2015.98 520.149 2019.41 516.617C2022.84 513.086 2024.55 507.166 2024.55 498.857V486.706C2024.55 478.813 2023.15 473.1 2020.34 469.569C2017.54 466.039 2013.12 464.273 2007.1 464.273H1990.58V521.914H2003.98ZM2010.22 620.06C2016.24 620.06 2020.71 618.45 2023.62 615.23C2026.52 612.011 2027.98 606.454 2027.98 598.561V579.555C2027.98 569.585 2026.26 562.678 2022.84 558.835C2019.41 554.993 2013.75 553.071 2005.85 553.071H1990.58V620.06H2010.22ZM2082.2 433.115H2116.48V651.217H2082.2V433.115ZM2243 671.469C2227.42 671.469 2217.86 664.511 2214.33 650.594C2207.89 653.086 2200.31 654.332 2191.58 654.332C2174.75 654.332 2161.87 649.555 2152.94 640C2144.01 630.445 2139.54 616.944 2139.54 599.496V484.837C2139.54 467.388 2144.01 453.887 2152.94 444.332C2161.87 434.777 2174.75 430 2191.58 430C2208.41 430 2221.29 434.777 2230.22 444.332C2239.15 453.887 2243.62 467.388 2243.62 484.837V599.496C2243.62 614.036 2240.4 625.979 2233.96 635.327C2235.21 637.404 2236.76 638.754 2238.63 639.378C2240.5 640 2243.21 640.312 2246.74 640.312H2252.03V671.469H2243ZM2191.58 623.176C2203.42 623.176 2209.34 616.009 2209.34 601.677V482.656C2209.34 468.323 2203.42 461.157 2191.58 461.157C2179.74 461.157 2173.82 468.323 2173.82 482.656V601.677C2173.82 616.009 2179.74 623.176 2191.58 623.176ZM2316.23 654.332C2299.4 654.332 2286.52 649.555 2277.59 640C2268.65 630.445 2264.19 616.944 2264.19 599.496V484.837C2264.19 467.388 2268.65 453.887 2277.59 444.332C2286.52 434.777 2299.4 430 2316.23 430C2333.06 430 2345.94 434.777 2354.87 444.332C2363.8 453.887 2368.27 467.388 2368.27 484.837V599.496C2368.27 616.944 2363.8 630.445 2354.87 640C2345.94 649.555 2333.06 654.332 2316.23 654.332ZM2316.23 623.176C2328.07 623.176 2333.99 616.009 2333.99 601.677V482.656C2333.99 468.323 2328.07 461.157 2316.23 461.157C2304.39 461.157 2298.47 468.323 2298.47 482.656V601.677C2298.47 616.009 2304.39 623.176 2316.23 623.176ZM2391.33 433.115H2425.61V620.06H2482.01V651.217H2391.33V433.115ZM2498.53 433.115H2550.26C2567.91 433.115 2580.79 437.218 2588.9 445.423C2597 453.628 2601.05 466.246 2601.05 483.279V492.003C2601.05 503.22 2599.23 512.359 2595.6 519.421C2591.96 526.484 2586.4 531.573 2578.92 534.689V535.312C2595.96 541.128 2604.48 556.291 2604.48 580.802V599.496C2604.48 616.321 2600.06 629.147 2591.23 637.975C2582.4 646.803 2569.47 651.217 2552.44 651.217H2498.53V433.115ZM2546.2 521.914C2553.06 521.914 2558.2 520.149 2561.63 516.617C2565.06 513.086 2566.77 507.166 2566.77 498.857V486.706C2566.77 478.813 2565.37 473.1 2562.56 469.569C2559.76 466.039 2555.34 464.273 2549.32 464.273H2532.8V521.914H2546.2ZM2552.44 620.06C2558.46 620.06 2562.93 618.45 2565.84 615.23C2568.74 612.011 2570.2 606.454 2570.2 598.561V579.555C2570.2 569.585 2568.48 562.678 2565.06 558.835C2561.63 554.993 2555.97 553.071 2548.07 553.071H2532.8V620.06H2552.44ZM2624.42 433.115H2658.7V651.217H2624.42V433.115ZM2684.25 433.115H2727.26L2760.6 563.665H2761.22V433.115H2791.76V651.217H2756.55L2715.41 492.003H2714.79V651.217H2684.25V433.115ZM2911.74 654.332C2895.12 654.332 2882.55 649.607 2874.03 640.156C2865.51 630.705 2861.25 617.151 2861.25 599.496V587.033H2893.66V601.988C2893.66 616.113 2899.58 623.176 2911.42 623.176C2917.24 623.176 2921.66 621.461 2924.67 618.035C2927.68 614.607 2929.19 609.05 2929.19 601.365C2929.19 592.225 2927.11 584.177 2922.95 577.218C2918.8 570.26 2911.11 561.899 2899.89 552.136C2885.77 539.673 2875.9 528.405 2870.29 518.331C2864.68 508.256 2861.88 496.884 2861.88 484.213C2861.88 466.973 2866.24 453.628 2874.96 444.176C2883.69 434.725 2896.36 430 2912.98 430C2929.39 430 2941.81 434.725 2950.22 444.176C2958.63 453.628 2962.84 467.181 2962.84 484.837V493.872H2930.43V482.656C2930.43 475.178 2928.98 469.725 2926.07 466.298C2923.16 462.87 2918.9 461.157 2913.29 461.157C2901.87 461.157 2896.15 468.116 2896.15 482.032C2896.15 489.925 2898.28 497.3 2902.54 504.154C2906.8 511.009 2914.54 519.317 2925.76 529.08C2940.09 541.543 2949.96 552.863 2955.36 563.041C2960.76 573.22 2963.46 585.164 2963.46 598.873C2963.46 616.736 2959.05 630.445 2950.22 640C2941.39 649.555 2928.56 654.332 2911.74 654.332ZM3008.65 433.115H3055.08L3090.61 651.217H3056.33L3050.1 607.909V608.531H3011.14L3004.91 651.217H2973.12L3008.65 433.115ZM3046.04 578.932L3030.77 471.127H3030.15L3015.19 578.932H3046.04ZM3107.12 433.115H3141.4V620.06H3197.8V651.217H3107.12V433.115ZM3214.32 433.115H3248.6V651.217H3214.32V433.115ZM3274.15 433.115H3323.07L3344.89 589.214H3345.51L3367.33 433.115H3416.25V651.217H3383.84V486.083H3383.22L3358.29 651.217H3329.62L3304.69 486.083H3304.07V651.217H3274.15V433.115Z" fill="#133D6D"/>
</svg>
