<svg width="174" height="64" viewBox="0 0 174 64" fill="none" xmlns="http://www.w3.org/2000/svg">
<path fill-rule="evenodd" clip-rule="evenodd" d="M8.84763 10.5493C9.19297 11.1115 8.95645 13.0322 8.94385 13.8088L7.64819 14.5921L7.64988 18.2864L7.67974 20.2675L8.92584 20.9829C9.05237 23.3036 8.94452 25.9227 8.94452 28.2759V42.6806C8.94452 46.118 8.66236 46.0065 11.2194 47.489C14.2444 49.2427 17.3106 51.0434 20.3565 52.7573C22.9577 54.2211 27.0109 56.7636 29.4078 57.9741C30.1387 57.7028 31.0523 57.0722 31.7527 56.6788C32.5311 56.2418 33.2754 55.8054 34.0181 55.3732L43.0699 50.1411C44.6189 49.223 46.1511 48.4035 47.6801 47.4873C50.1908 45.9832 49.9608 46.2627 49.9608 42.6806C49.9608 40.2594 49.9608 37.8379 49.9608 35.4168C49.9608 30.7031 49.7852 25.6456 49.9771 20.9747L51.2577 20.3091L51.2659 14.5736L49.9839 13.8896L49.9511 11.152C49.9936 9.71375 51.2732 9.77613 50.9203 7.40699C50.7474 6.24549 50.125 5.64095 49.4542 5.07656C47.7333 3.62938 48.3247 3.77214 47.6918 3.03224C47.1813 4.32848 46.8386 4.36797 46.0095 5.06641C44.2519 6.54663 43.9977 8.61795 45.2391 10.2742C45.6935 10.8803 45.4995 13.0356 45.4927 13.9124L44.2179 14.5817L44.206 20.1501C44.481 20.5976 45.0806 20.8137 45.4817 20.9866L45.4959 43.4195C45.4094 43.8058 42.1216 45.5391 41.6045 45.8444L31.452 51.6973C30.8271 52.0653 29.9427 52.7439 29.2058 52.7689L13.4168 43.5426L13.4319 20.9951C13.7932 20.8346 14.4817 20.5199 14.7084 20.1501L14.6729 14.5892L13.4182 13.9025L13.3898 11.3662C13.4729 10.1375 13.454 10.7295 13.937 9.93062C14.2559 9.40297 14.217 9.03003 14.4171 8.54726C14.2583 4.49694 12.1659 5.6623 11.2231 3.01234C10.807 3.47884 10.8522 3.99653 9.93708 4.70019C9.43342 5.08775 8.77575 5.59425 8.42042 6.1392C7.46869 7.59931 7.97264 9.41482 8.84763 10.5493Z" fill="#274371"/>
<path fill-rule="evenodd" clip-rule="evenodd" d="M29.7 46.1709C29.9611 45.8453 34.0588 43.6123 34.7706 43.1944C35.6517 42.6772 36.4777 42.2151 37.3428 41.7037C38.1262 41.2406 39.1275 40.6027 39.929 40.2438L39.9404 35.7545L29.4241 29.7988C28.6807 30.1419 27.6583 30.7934 26.8935 31.2555L18.9761 35.7569L18.9739 40.2363C20.7261 41.1012 22.4728 42.2347 24.2313 43.2238C25.1597 43.746 28.9432 46.1425 29.7 46.1709Z" fill="#F18B04"/>
<path fill-rule="evenodd" clip-rule="evenodd" d="M29.7042 46.1705C28.9474 46.142 25.164 43.7456 24.2355 43.2233C22.477 42.2344 20.7303 41.1008 18.9781 40.2359L18.9802 35.7566L26.8977 31.2551C27.6625 30.793 28.6849 30.1415 29.4283 29.7984L39.9446 35.7541L39.9332 40.2435C39.1318 40.6023 38.1304 41.2402 37.347 41.7033C36.4819 42.2147 35.656 42.6768 34.7749 43.1939C34.0631 43.6119 29.9652 45.8449 29.7042 46.1705ZM29.336 26.4579L29.3164 26.4586L17.4073 33.3045L17.4231 27.1874L29.2857 20.4031L29.336 20.2555C30.457 20.5449 39.5842 26.266 41.5295 27.1383L41.523 33.3502C39.8321 32.6452 30.4838 26.777 29.336 26.4579ZM29.4864 16.9298C28.7894 17.1626 18.0166 23.4892 16.5247 24.3323C13.9206 25.8042 14.4859 26.0128 14.4859 30.3688C14.4859 32.3929 14.3623 41.5287 14.6198 42.2417C14.9826 43.2459 15.8578 43.568 16.8072 44.1259L29.2976 51.3295C29.3196 51.3356 29.3606 51.3421 29.3805 51.346C29.4002 51.3496 29.448 51.3477 29.464 51.3496L29.6345 51.3307C31.2731 50.297 33.1071 49.3337 34.7724 48.363L42.4203 43.9448C43.3099 43.4521 44.1385 43.0667 44.3715 41.959C44.5504 41.1059 44.5011 26.8018 44.2787 26.1357C43.9149 25.0463 43.0931 24.7785 42.1345 24.2203C41.2781 23.7215 40.5124 23.2953 39.6395 22.7767L29.4864 16.9298Z" fill="#274371"/>
<path fill-rule="evenodd" clip-rule="evenodd" d="M29.2744 20.4035L17.4118 27.1878L17.396 33.3049L29.3051 26.4591L29.3248 26.4583C30.4725 26.7774 39.8209 32.6457 41.5117 33.3506L41.5182 27.1387C39.573 26.2664 30.4458 20.5453 29.3248 20.2559L29.2744 20.4035Z" fill="#F18B04"/>
<path fill-rule="evenodd" clip-rule="evenodd" d="M14.4679 8.54733C14.2678 9.03006 14.3066 9.40306 13.9878 9.9307C13.5047 10.7298 13.5237 10.1376 13.4406 11.3663C14.8778 10.4428 16.1827 9.29645 18.0285 8.30866C18.9146 7.83394 22.4893 6.11207 23.5513 6.12446L22.7166 8.40044C23.632 8.32612 23.5758 8.10471 23.9933 7.50104C24.2068 7.19214 24.7272 6.35467 24.9339 6.23857C25.2664 6.05187 28.477 5.83867 28.9166 5.95717C29.0249 7.24267 28.5202 8.80497 28.3352 10.1315C29.6483 9.95501 29.6318 9.37683 30.1255 8.2142C30.3633 7.65496 30.9855 6.08466 31.301 5.6988C32.7557 5.58757 35.1743 5.51424 35.5158 4.26808C35.1959 2.81821 32.2498 3.5406 30.9267 3.67366L28.5858 0.504579C28.2011 0.0410475 28.0615 -0.0553534 27.2183 0.0264705C27.3547 1.15315 28.6642 2.63097 28.6358 4.02185L24.6483 4.67797C24.3586 4.17168 23.9669 4.01383 23.5965 3.6472C23.0974 3.15329 23.028 2.89396 22.1313 2.96341C22.3212 3.74406 23.4139 4.41741 23.3335 5.25129C22.7472 5.48902 20.3288 6.06109 18.6509 6.71209C16.8783 7.40051 16.4492 7.70913 14.9772 8.47524C14.4086 8.77075 14.6544 8.66608 14.4679 8.54733ZM57.6925 42.7324C58.4002 41.674 58.901 37.045 58.9143 36.0582C58.6743 36.936 58.5187 38.3075 58.2833 39.3203C56.8099 45.6635 52.3182 52.1935 47.0023 55.6217C43.7019 57.7508 40.3492 59.3728 35.7492 60.1117C22.9791 62.1634 10.4896 55.0372 5.78204 43.6211C4.07545 39.4825 3.2507 35.2185 3.65314 30.2579C3.83553 28.0089 4.35938 25.7732 5.03452 23.7546C5.47895 22.4259 6.83725 19.1281 7.59642 18.4103C7.63288 18.9822 7.50099 19.878 7.7305 20.2679L7.7006 18.2867L7.69891 14.5924L8.99457 13.8091C9.0072 13.0323 9.24377 11.1118 8.89839 10.5497C9.21268 13.4461 8.85784 12.9995 6.90865 15.1662C2.12068 20.4882 -0.555613 29.0156 0.0971841 36.6485C2.27783 62.1505 33.8376 73.1137 51.4168 53.8802C53.0563 52.0862 53.8199 50.9882 55.1002 48.8232C55.7707 47.6894 57.5235 44.1627 57.6925 42.7324Z" fill="#F18B04"/>
<path d="M86.4178 38.4549H85.1479V41.6799H84.3011V38.4549H83.0312V37.814H86.4178V38.4549ZM90.5887 41.7622C90.0002 41.7622 89.5387 41.5827 89.2024 41.2245C88.8661 40.8664 88.698 40.3752 88.698 39.7509C88.698 39.1231 88.8652 38.6301 89.1998 38.2719C89.5343 37.9138 89.9976 37.7343 90.5887 37.7343C91.179 37.7343 91.6423 37.9138 91.9786 38.2728C92.3149 38.6318 92.483 39.1248 92.483 39.7509C92.483 40.3717 92.3157 40.862 91.9812 41.2219C91.6466 41.5818 91.1825 41.7622 90.5887 41.7622ZM90.5914 38.3446C90.2857 38.3446 90.0414 38.4672 89.8601 38.7115C89.6788 38.9567 89.5886 39.3026 89.5886 39.7509C89.5886 40.1974 89.6788 40.5424 89.8601 40.7858C90.0414 41.0293 90.2857 41.151 90.5914 41.151C90.8961 41.151 91.1387 41.0284 91.32 40.7832C91.5013 40.5381 91.5924 40.1931 91.5924 39.7482C91.5924 39.3017 91.5022 38.9567 91.3217 38.7115C91.1413 38.4672 90.8979 38.3446 90.5914 38.3446ZM98.6016 40.2333C98.6016 40.7412 98.4589 41.1221 98.1742 41.3769C97.8896 41.6317 97.4824 41.7596 96.9543 41.7596C96.4236 41.7596 96.0173 41.6308 95.7344 41.3734C95.4506 41.116 95.3096 40.736 95.3096 40.2333V37.814H96.1591V40.2097C96.1591 40.531 96.2248 40.764 96.3562 40.9076C96.4876 41.0512 96.6872 41.123 96.9543 41.123C97.2276 41.123 97.429 41.0521 97.5586 40.9093C97.6873 40.7666 97.7521 40.5346 97.7521 40.2149V37.814H98.6016V40.2333ZM105.24 41.6799H104.193L103.059 40.2149H102.52V41.6799H101.673V37.814H103.154C103.691 37.814 104.078 37.9094 104.316 38.1003C104.552 38.2903 104.67 38.5495 104.67 38.8761C104.67 39.3875 104.413 39.7658 103.899 40.0127L105.24 41.6799ZM102.515 38.4217V39.6248H102.895C103.259 39.6248 103.5 39.5644 103.619 39.4427C103.737 39.3218 103.795 39.1624 103.795 38.9654C103.795 38.7912 103.739 38.6572 103.626 38.5626C103.513 38.4689 103.291 38.4217 102.959 38.4217H102.515ZM113.536 41.6799H112.531L112.095 41.2718C111.743 41.5967 111.33 41.7596 110.858 41.7596C110.415 41.7596 110.063 41.6519 109.801 41.4373C109.539 41.2228 109.409 40.9373 109.409 40.5819C109.409 40.1292 109.65 39.7728 110.132 39.5145C109.93 39.3674 109.791 39.2281 109.715 39.0968C109.639 38.9645 109.601 38.8157 109.601 38.6502C109.601 38.3831 109.715 38.1642 109.943 37.9926C110.172 37.8201 110.489 37.7343 110.894 37.7343C111.269 37.7343 111.564 37.8096 111.78 37.9602C111.997 38.1108 112.105 38.3105 112.105 38.56C112.105 39.0258 111.821 39.3525 111.253 39.5407L112.1 40.3148C112.117 40.2658 112.125 39.9575 112.125 39.3919H112.949V39.6686C112.949 40.0863 112.83 40.447 112.592 40.7508L113.536 41.6107V41.6799ZM111.279 38.6528C111.279 38.3604 111.137 38.2141 110.853 38.2141C110.736 38.2141 110.638 38.2518 110.558 38.3271C110.477 38.4024 110.437 38.5049 110.437 38.6344C110.437 38.8297 110.596 39.0381 110.914 39.2605C111.158 39.1239 111.279 38.9216 111.279 38.6528ZM111.709 40.9023L110.527 39.8174C110.358 39.9575 110.273 40.1651 110.273 40.4382C110.273 40.6572 110.345 40.834 110.489 40.968C110.632 41.102 110.815 41.1694 111.038 41.1694C111.311 41.1694 111.535 41.0801 111.709 40.9023ZM120.83 38.4549H119.56V41.6799H118.713V38.4549H117.444V37.814H120.83V38.4549ZM127.103 41.6799H126.055L124.921 40.2149H124.383V41.6799H123.536V37.814H125.017C125.554 37.814 125.941 37.9094 126.178 38.1003C126.414 38.2903 126.533 38.5495 126.533 38.8761C126.533 39.3875 126.275 39.7658 125.761 40.0127L127.103 41.6799ZM124.377 38.4217V39.6248H124.758C125.122 39.6248 125.363 39.5644 125.481 39.4427C125.599 39.3218 125.658 39.1624 125.658 38.9654C125.658 38.7912 125.602 38.6572 125.489 38.5626C125.376 38.4689 125.153 38.4217 124.821 38.4217H124.377ZM133.093 41.6799H132.197L131.904 40.841H130.383L130.091 41.6799H129.234L130.694 37.814H131.633L133.093 41.6799ZM131.692 40.2404L131.145 38.6808L130.599 40.2404H131.692ZM138.899 37.814L137.431 41.6799H136.566L135.101 37.814H135.991L137.015 40.6379L138.036 37.814H138.899ZM144.27 41.6799H141.576V37.814H144.27V38.4549H142.417V39.2815H144.139V39.9199H142.417V41.0389H144.27V41.6799ZM149.896 41.6799H147.212V37.814H148.059V41.0389H149.896V41.6799Z" fill="#F18B04"/>
<path d="M58.9294 22.0601H61.5642C62.4635 22.0601 63.1196 22.269 63.5322 22.6869C63.9449 23.1049 64.1513 23.7475 64.1513 24.6151V25.0594C64.1513 25.6307 64.0587 26.0962 63.8735 26.4559C63.6883 26.8156 63.4053 27.0748 63.0243 27.2335V27.2653C63.892 27.5615 64.3258 28.3338 64.3258 29.5822V30.5344C64.3258 31.3913 64.101 32.0446 63.6513 32.4942C63.2016 32.9439 62.5429 33.1687 61.6753 33.1687H58.9294V22.0601ZM61.3578 26.5829C61.707 26.5829 61.9689 26.493 62.1435 26.3131C62.3181 26.1333 62.4053 25.8317 62.4053 25.4085V24.7896C62.4053 24.3876 62.3339 24.0967 62.1911 23.9168C62.0482 23.737 61.8234 23.647 61.5165 23.647H60.6753V26.5829H61.3578ZM61.6753 31.5818C61.9821 31.5818 62.2096 31.4997 62.3577 31.3358C62.5059 31.1718 62.5799 30.8888 62.5799 30.4868V29.5187C62.5799 29.0109 62.4926 28.6591 62.3181 28.4634C62.1435 28.2677 61.8551 28.1698 61.4531 28.1698H60.6753V31.5818H61.6753ZM65.3416 22.0601H70.1032V23.647H67.0875V26.5829H69.4841V28.1698H67.0875V31.5818H70.1032V33.1687H65.3416V22.0601ZM71.1031 22.0601H73.6902C74.5896 22.0601 75.2456 22.269 75.6583 22.6869C76.0709 23.1049 76.2773 23.7475 76.2773 24.6151V25.2974C76.2773 26.4506 75.8963 27.1807 75.1345 27.4874V27.5192C75.5577 27.6461 75.8567 27.9053 76.0313 28.2968C76.2059 28.6882 76.2931 29.2119 76.2931 29.8679V31.8198C76.2931 32.1372 76.3037 32.3937 76.3249 32.5894C76.346 32.7852 76.3989 32.9782 76.4836 33.1687H74.706C74.6425 32.9888 74.6002 32.8196 74.579 32.6609C74.5578 32.5022 74.5473 32.2165 74.5473 31.8039V29.7726C74.5473 29.2648 74.4652 28.9104 74.3012 28.7094C74.1372 28.5084 73.8542 28.4079 73.4521 28.4079H72.849V33.1687H71.1031V22.0601ZM73.4838 26.8209C73.833 26.8209 74.0949 26.731 74.2695 26.5512C74.4441 26.3713 74.5314 26.0698 74.5314 25.6466V24.7896C74.5314 24.3876 74.4599 24.0967 74.3171 23.9168C74.1743 23.737 73.9494 23.647 73.6425 23.647H72.849V26.8209H73.4838ZM77.4994 22.0601H79.2453V26.7416L81.4673 22.0601H83.2132L81.134 26.1386L83.245 33.1687H81.4197L79.9436 28.2174L79.2453 29.6298V33.1687H77.4994V22.0601ZM85.4194 22.0601H87.7843L89.5937 33.1687H87.8478L87.5303 30.9629V30.9946H85.5464L85.2289 33.1687H83.61L85.4194 22.0601ZM87.324 29.487L86.5463 23.9962H86.5146L85.7527 29.487H87.324ZM90.4349 22.0601H92.1808V26.5829H94.0536V22.0601H95.7995V33.1687H94.0536V28.1698H92.1808V33.1687H90.4349V22.0601ZM99.6406 22.0601H102.275C103.175 22.0601 103.831 22.269 104.243 22.6869C104.656 23.1049 104.862 23.7475 104.862 24.6151V25.0594C104.862 25.6307 104.77 26.0962 104.585 26.4559C104.399 26.8156 104.116 27.0748 103.735 27.2335V27.2653C104.603 27.5615 105.037 28.3338 105.037 29.5822V30.5344C105.037 31.3913 104.812 32.0446 104.362 32.4942C103.913 32.9439 103.254 33.1687 102.386 33.1687H99.6406V22.0601ZM102.069 26.5829C102.418 26.5829 102.68 26.493 102.855 26.3131C103.029 26.1333 103.116 25.8317 103.116 25.4085V24.7896C103.116 24.3876 103.045 24.0967 102.902 23.9168C102.759 23.737 102.534 23.647 102.228 23.647H101.386V26.5829H102.069ZM102.386 31.5818C102.693 31.5818 102.921 31.4997 103.069 31.3358C103.217 31.1718 103.291 30.8888 103.291 30.4868V29.5187C103.291 29.0109 103.204 28.6591 103.029 28.4634C102.855 28.2677 102.566 28.1698 102.164 28.1698H101.386V31.5818H102.386ZM106.053 22.0601H107.799V33.1687H106.053V22.0601ZM114.243 34.2002C113.449 34.2002 112.962 33.8458 112.782 33.137C112.454 33.2639 112.068 33.3274 111.624 33.3274C110.767 33.3274 110.111 33.084 109.656 32.5974C109.201 32.1107 108.973 31.423 108.973 30.5344V24.6944C108.973 23.8057 109.201 23.1181 109.656 22.6314C110.111 22.1447 110.767 21.9014 111.624 21.9014C112.481 21.9014 113.137 22.1447 113.592 22.6314C114.047 23.1181 114.274 23.8057 114.274 24.6944V30.5344C114.274 31.2749 114.11 31.8832 113.782 32.3593C113.846 32.4651 113.925 32.5339 114.02 32.5657C114.116 32.5974 114.253 32.6133 114.433 32.6133H114.703V34.2002H114.243ZM111.624 31.7404C112.227 31.7404 112.528 31.3754 112.528 30.6455V24.5834C112.528 23.8534 112.227 23.4884 111.624 23.4884C111.021 23.4884 110.719 23.8534 110.719 24.5834V30.6455C110.719 31.3754 111.021 31.7404 111.624 31.7404ZM117.972 33.3274C117.115 33.3274 116.459 33.084 116.004 32.5974C115.549 32.1107 115.322 31.423 115.322 30.5344V24.6944C115.322 23.8057 115.549 23.1181 116.004 22.6314C116.459 22.1447 117.115 21.9014 117.972 21.9014C118.83 21.9014 119.486 22.1447 119.941 22.6314C120.396 23.1181 120.623 23.8057 120.623 24.6944V30.5344C120.623 31.423 120.396 32.1107 119.941 32.5974C119.486 33.084 118.83 33.3274 117.972 33.3274ZM117.972 31.7404C118.576 31.7404 118.877 31.3754 118.877 30.6455V24.5834C118.877 23.8534 118.576 23.4884 117.972 23.4884C117.369 23.4884 117.068 23.8534 117.068 24.5834V30.6455C117.068 31.3754 117.369 31.7404 117.972 31.7404ZM121.798 22.0601H123.543V31.5818H126.416V33.1687H121.798V22.0601ZM127.257 22.0601H129.892C130.792 22.0601 131.448 22.269 131.86 22.6869C132.273 23.1049 132.479 23.7475 132.479 24.6151V25.0594C132.479 25.6307 132.387 26.0962 132.201 26.4559C132.016 26.8156 131.733 27.0748 131.352 27.2335V27.2653C132.22 27.5615 132.654 28.3338 132.654 29.5822V30.5344C132.654 31.3913 132.429 32.0446 131.979 32.4942C131.53 32.9439 130.871 33.1687 130.003 33.1687H127.257V22.0601ZM129.686 26.5829C130.035 26.5829 130.297 26.493 130.472 26.3131C130.646 26.1333 130.733 25.8317 130.733 25.4085V24.7896C130.733 24.3876 130.662 24.0967 130.519 23.9168C130.376 23.737 130.151 23.647 129.845 23.647H129.003V26.5829H129.686ZM130.003 31.5818C130.31 31.5818 130.538 31.4997 130.686 31.3358C130.834 31.1718 130.908 30.8888 130.908 30.4868V29.5187C130.908 29.0109 130.821 28.6591 130.646 28.4634C130.472 28.2677 130.183 28.1698 129.781 28.1698H129.003V31.5818H130.003ZM133.67 22.0601H135.416V33.1687H133.67V22.0601ZM136.717 22.0601H138.907L140.606 28.7094H140.637V22.0601H142.193V33.1687H140.399L138.304 25.0594H138.272V33.1687H136.717V22.0601ZM148.303 33.3274C147.457 33.3274 146.817 33.0867 146.383 32.6053C145.949 32.1239 145.732 31.4336 145.732 30.5344V29.8996H147.383V30.6613C147.383 31.3807 147.684 31.7404 148.288 31.7404C148.584 31.7404 148.809 31.6531 148.962 31.4786C149.116 31.304 149.192 31.021 149.192 30.6296C149.192 30.1641 149.086 29.7541 148.875 29.3997C148.663 29.0453 148.272 28.6194 147.7 28.1222C146.981 27.4874 146.478 26.9135 146.193 26.4004C145.907 25.8873 145.764 25.308 145.764 24.6627C145.764 23.7846 145.986 23.1049 146.431 22.6235C146.875 22.1421 147.52 21.9014 148.367 21.9014C149.203 21.9014 149.835 22.1421 150.264 22.6235C150.692 23.1049 150.906 23.7952 150.906 24.6944V25.1546H149.256V24.5834C149.256 24.2025 149.182 23.9248 149.034 23.7502C148.885 23.5756 148.669 23.4884 148.383 23.4884C147.801 23.4884 147.51 23.8428 147.51 24.5516C147.51 24.9536 147.618 25.3292 147.835 25.6783C148.052 26.0275 148.446 26.4506 149.018 26.9479C149.748 27.5827 150.25 28.1592 150.526 28.6776C150.801 29.196 150.938 29.8044 150.938 30.5026C150.938 31.4125 150.713 32.1107 150.264 32.5974C149.814 33.084 149.161 33.3274 148.303 33.3274ZM153.24 22.0601H155.605L157.414 33.1687H155.668L155.351 30.9629V30.9946H153.367L153.049 33.1687H151.43L153.24 22.0601ZM155.144 29.487L154.366 23.9962H154.335L153.573 29.487H155.144ZM158.255 22.0601H160.001V31.5818H162.874V33.1687H158.255V22.0601ZM163.715 22.0601H165.461V33.1687H163.715V22.0601ZM166.762 22.0601H169.254L170.365 30.0107H170.397L171.508 22.0601H174V33.1687H172.349V24.7579H172.318L171.048 33.1687H169.588L168.318 24.7579H168.286V33.1687H166.762V22.0601Z" fill="#133D6D"/>
</svg>
